{
    "asset" : {
        "generator" : "Khronos glTF Blender I/O v1.1.46",
        "version" : "2.0"
    },
    "scene" : 0,
    "scenes" : [
        {
            "name" : "Scene",
            "nodes" : [
                0
            ]
        }
    ],
    "nodes" : [
        {
            "mesh" : 0,
            "name" : "Cube"
        }
    ],
    "meshes" : [
        {
            "name" : "Cube.009",
            "primitives" : [
                {
                    "attributes" : {
                        "POSITION" : 0,
                        "NORMAL" : 1,
                        "TEXCOORD_0" : 2
                    },
                    "indices" : 3
                }
            ]
        }
    ],
    "accessors" : [
        {
            "bufferView" : 0,
            "componentType" : 5126,
            "count" : 196,
            "max" : [
                1.704043984413147,
                5.768394470214844,
                0.5590684413909912
            ],
            "min" : [
                -1.7211956977844238,
                0.0029465456027537584,
                -0.5978113412857056
            ],
            "type" : "VEC3"
        },
        {
            "bufferView" : 1,
            "componentType" : 5126,
            "count" : 196,
            "type" : "VEC3"
        },
        {
            "bufferView" : 2,
            "componentType" : 5126,
            "count" : 196,
            "type" : "VEC2"
        },
        {
            "bufferView" : 3,
            "componentType" : 5123,
            "count" : 324,
            "type" : "SCALAR"
        }
    ],
    "bufferViews" : [
        {
            "buffer" : 0,
            "byteLength" : 2352,
            "byteOffset" : 0
        },
        {
            "buffer" : 0,
            "byteLength" : 2352,
            "byteOffset" : 2352
        },
        {
            "buffer" : 0,
            "byteLength" : 1568,
            "byteOffset" : 4704
        },
        {
            "buffer" : 0,
            "byteLength" : 648,
            "byteOffset" : 6272
        }
    ],
    "buffers" : [
        {
            "byteLength" : 6920,
            "uri" : "data:application/octet-stream;base64,"
        }
    ]
}
